<svg width="100" height="100" viewBox="0 0 100 100" fill="none" xmlns="http://www.w3.org/2000/svg">
<path d="M63.0868 0L55.2923 8.20114L62.9318 23.765L63.2418 24.4547L63.0425 25.166C62.0018 28.6145 61.581 32.6882 62.0239 36.3523C62.3782 39.1542 63.2197 41.676 64.5704 43.5296L100 6.20959C97.9849 5.03492 95.3499 4.42064 92.4491 4.30425C88.6625 4.15769 84.5217 4.89697 81.0673 6.17295L80.3587 6.42943L63.0868 0ZM53.2994 13.1606L11.3729 33.7227C12.7414 34.3262 13.9593 35.2099 14.9535 36.2876L55.0044 16.6523L53.2994 13.1606ZM92.2941 20.0362L78.1444 34.9728C82.3738 37.5593 88.0425 36.9127 91.5633 33.2054C95.0841 29.5198 95.2834 23.959 92.2941 20.0362ZM56.7316 20.1655L17.0283 39.6284C17.4712 40.7708 17.7148 42.0209 17.7148 43.3141V43.6374L58.4367 23.6572L56.7316 20.1655ZM6.86448 36.6325C3.04916 36.6325 0 39.6069 0 43.3141C0 47.0213 3.04916 49.9957 6.86448 49.9957C10.6798 49.9957 13.729 47.0213 13.729 43.3141C13.729 39.6069 10.6798 36.6325 6.86448 36.6325ZM16.9398 47.2153C16.4061 48.5085 15.6112 49.6939 14.6169 50.6854L38.3525 82.7571H43.2462L16.9398 47.2153ZM11.3508 52.927C10.062 53.4874 8.63818 53.8322 7.14349 53.8753L28.5208 82.7571H33.4367L11.3508 52.927ZM63.7732 78.8775V82.7571H67.7591V78.8775H63.7732ZM23.76 86.6368L12.7834 100H89.5261L78.543 86.6368H23.76Z" fill="black"/>
</svg>
