<svg xmlns="http://www.w3.org/2000/svg" xml:space="preserve" width="360" height="360" style="shape-rendering:geometricPrecision;text-rendering:geometricPrecision;image-rendering:optimizeQuality;fill-rule:evenodd;clip-rule:evenodd" viewBox="0 0 45.4 45.4"><defs><clipPath id="a"><path d="M0 0h45.4v45.4H0V0z"/></clipPath></defs><g style="clip-path:url(#a)"><path d="M35.12-3.7c.14-.06.49-.13.77-.15.28-.03.6 0 .72.04.18.1.33.44 2.11 5.41 1.05 2.92 2.84 8.02 3.98 11.33 1.14 3.31 2.97 8.68 4.06 11.93 1.1 3.25 2.13 6.31 2.31 6.8.21.59.29.88.22.84-.07-.03-.87-2.04-1.99-4.94-1.01-2.69-2.89-7.65-4.16-11.02-1.26-3.37-3.25-8.7-4.41-11.84-1.17-3.15-2.26-6.05-2.76-7.23l-7.1 2.52c-3.9 1.38-8.88 3.15-15.08 5.29l.19.54c.11.29.23.84.29 1.2.04.37.1.75.1.86 0 .18 0 .18-.13.03-.08-.1-.33-.57-.56-1.06-.23-.49-.43-.98-.45-1.09-.02-.21-.05-.21-.88.04-.45.14-.86.29-.88.35-.02.05 2.83 7.93 6.34 17.51 3.51 9.59 6.53 17.78 7.03 18.98l.85-.31c.62-.23.84-.34.81-.42-.02-.08-.01-.08.07-.03.07.06 1.86-.54 6.38-2.11 3.45-1.19 8.05-2.79 10.22-3.53 2.16-.74 4.19-1.43 4.48-1.54.34-.13.53-.16.5-.1-.03.06-1.58.72-3.46 1.46s-7.02 2.74-11.43 4.44c-6.73 2.58-8.09 3.09-8.45 3.1-.22.02-.45 0-.51-.03-.06-.04-.3-.47-.54-.97-.29-.59-.78-1.92-1.44-3.88-.56-1.64-1.42-4.22-1.91-5.74-.49-1.52-2.84-8.21-5.22-14.84C12.81 11.49 10.87 6 10.87 5.93c.02-.06.19-.22.4-.35.21-.12 5.16-2.03 11.01-4.22 7.13-2.69 10.95-4.16 11.61-4.48.54-.27 1.1-.53 1.23-.58zm-9.29 8.75c6.54-2.39 7.55-2.74 7.75-2.69.12.04.3.13.38.21.09.08.51 1.26 1.12 3.12.55 1.64 1.33 4.06 1.75 5.36.42 1.31.75 2.4.75 2.41-.01.02-.23-.49-.5-1.12-.26-.63-1.19-2.97-2.04-5.18-.87-2.21-1.61-4.05-1.64-4.06-.04-.03-3.44 1.17-15.03 5.3l1.97 5.42c1.1 2.98 2.03 5.44 2.08 5.47.06.02 2.79-.91 6.08-2.08 3.3-1.16 6.63-2.32 8.84-3.01l-.74.34c-.41.19-2.34.97-4.28 1.73-1.95.77-4.96 1.92-6.68 2.55-3.11 1.15-3.15 1.15-3.38 1.03-.23-.11-.27-.2-.82-1.86-.31-.95-1-2.92-1.53-4.39-.52-1.45-1.18-3.18-1.46-3.82-.43-1.02-.49-1.21-.44-1.44.04-.14.12-.32.18-.41.08-.09 2.69-1.07 7.64-2.88zm1.41 3.26c2.1-.76 3.9-1.39 3.99-1.38.1 0 .19.06.22.12.01.05-.05.19-.16.29-.1.12-.47.33-.81.49-.35.16-1.37.48-2.34.73-1.42.37-1.88.53-2.7.91-.83.39-1.09.48-1.7.56-.39.06-.73.08-.75.03-.02-.04.05-.15.19-.23.12-.07 1.95-.76 4.06-1.52zm.71 1.97c2.1-.77 3.9-1.39 3.99-1.38.1 0 .19.05.22.11.01.06-.05.2-.15.31-.11.12-.54.35-.95.53-.42.17-1.19.43-1.72.55-.54.14-1.33.35-1.76.48-.43.13-1.15.41-1.59.64-.71.34-.92.41-1.55.5-.41.06-.75.06-.76.01-.02-.05.07-.15.21-.23.12-.07 1.95-.76 4.06-1.52zm.66 1.98c2.09-.75 3.89-1.37 4-1.37.12-.01.23.03.25.09.02.05-.04.19-.14.31-.11.11-.52.34-.91.51-.4.18-1.41.49-2.33.73-1.39.35-1.77.48-2.62.89-.87.41-1.07.48-1.71.57-.41.05-.75.06-.76.01-.02-.05.07-.15.21-.23.12-.08 1.93-.75 4.01-1.51zm-10.63 5.68c.05-.02.14.04.19.15.05.1.41.9.78 1.77.43 1.01 1.13 2.9 1.93 5.2.68 1.99 1.58 4.64 2.01 5.9.42 1.26 1.15 3.26 1.63 4.44.48 1.18 1.07 2.81 1.33 3.63.26.82.51 1.77.57 2.12.1.54.09.61-.04.49-.11-.09-1.34-3.41-4.22-11.38-2.23-6.19-4.1-11.49-4.16-11.77-.06-.29-.07-.53-.02-.55zm10.59 9.56c.16-.03.38-.03.5 0 .14.03.28.1.33.16.05.06.19.08.32.03.14-.05.4-.07.59-.03.2.03.47.16.61.28.14.13.28.31.32.41.03.09.04.24.02.33-.03.11.05.18.32.28.19.07.33.16.29.2-.05.05-.23.06-.41.02-.22-.04-.36-.13-.4-.25-.04-.12-.18-.33-.31-.47-.15-.17-.33-.27-.46-.26-.12 0-.32.11-.45.21-.21.16-.27.18-.41.09-.07-.06-.21-.16-.29-.24a.741.741 0 0 0-.44-.13c-.25.02-.3.06-.45.41-.17.35-.22.4-.65.54-.26.07-.54.21-.61.29-.12.12-.11.23.04.66.18.49.17.53-.03.79-.11.14-.21.34-.21.43 0 .1.07.25.16.36.07.11.31.22.51.28.32.06.38.12.5.44.07.2.22.43.33.51.15.11.28.11.59 0 .35-.12.48-.12.83.03.24.1.49.16.56.14.07-.02.24-.24.37-.49.23-.39.3-.45.61-.52.2-.03.4-.11.44-.17.05-.05.12-.44.17-.85.04-.41.11-.91.16-1.1.05-.19.1-.33.13-.32.04.01.08.12.1.23.04.11 0 .35-.09.54-.11.27-.12.4.02.77.14.4.14.51.01.82-.1.2-.3.46-.47.58-.16.13-.4.41-.52.63-.17.32-.28.42-.6.53-.21.08-.5.13-.66.11-.15-.02-.38-.09-.51-.15a.599.599 0 0 0-.49-.03c-.14.05-.41.06-.6.03-.17-.04-.43-.17-.55-.29-.12-.11-.27-.35-.33-.52a.782.782 0 0 0-.41-.46c-.17-.09-.37-.28-.46-.46a.998.998 0 0 1-.14-.66c.02-.18.12-.44.22-.56.14-.19.15-.3.04-.62-.11-.34-.09-.44.1-.78.15-.27.32-.44.49-.5.19-.07.28-.19.37-.47.07-.23.23-.47.37-.57.15-.1.38-.2.53-.23zm.65 6.32c.03.02.09.35.15.75.06.39.12 1.04.15 1.43.02.45-.03.85-.13 1.09-.13.3-.2.36-.38.37a.774.774 0 0 1-.39-.18c-.13-.11-.19-.27-.21-.49-.02-.18.03-.56.09-.86.06-.28.24-.89.4-1.33.16-.45.31-.8.32-.78zm2.39-.96.86.65c.48.36 1.02.84 1.21 1.06.19.23.37.53.41.68.05.2.02.29-.14.37-.11.06-.29.11-.41.13-.11.01-.33-.1-.48-.24-.16-.15-.42-.5-.58-.79-.15-.29-.42-.82-.58-1.19l-.29-.67z" style="fill:#4f99dd;fill-opacity:.25098"/></g><path style="fill:none" d="M0 0h45.4v45.4H0z"/></svg>