<svg width="733" height="734" viewBox="0 0 733 734" fill="none" xmlns="http://www.w3.org/2000/svg">
<g clip-path="url(#clip0_276_8301)">
<path fill-rule="evenodd" clip-rule="evenodd" d="M153.595 221.22C157.087 219.506 165.154 216.889 171.685 215.33C178.171 213.673 188.152 211.607 193.889 210.648C199.626 209.689 208.169 208.636 212.817 208.412C217.366 208.234 225.152 208.12 229.881 208.334C234.708 208.504 243.523 209.345 249.532 210.281C256.211 211.385 268.223 214.803 280.773 219.4C291.892 223.464 301.015 226.539 301.077 226.154C301.041 225.815 301.597 222.354 302.117 218.554C302.735 214.709 304.671 207.769 306.378 203.189C308.04 198.511 312.493 190.064 316.031 184.292C319.568 178.519 326.522 169.048 331.32 163.175C336.163 157.4 343.593 149.493 347.689 145.722C351.74 141.852 358.317 136.235 362.1 133.081C365.929 130.026 373.865 124.263 379.658 120.309C385.505 116.213 392.764 111.828 395.711 110.481C398.658 109.135 403.974 107.775 407.415 107.509C411.098 107.251 415.139 107.78 417.036 108.813C419.837 110.265 420.805 111.603 425.683 124.099L433.051 120.733C437.078 118.893 442.027 116.988 444.073 116.528C446.066 116.212 448.426 116.439 449.366 117.197C450.261 117.857 452.834 121.669 459.22 132.526L468.061 128.487C474.25 125.659 477.672 124.571 479.496 124.925C481.991 125.447 482.717 126.778 493.209 148.702C499.384 161.437 518.432 202.608 535.578 240.135C552.724 277.663 579.503 336.795 595.008 371.51C616.123 418.505 623.218 435.332 623.097 437.406C622.967 439.721 622.119 440.465 616.716 442.933C613.376 444.459 605.203 447.363 598.609 449.306C588.157 452.419 583.442 454.574 562.528 465.198C549.285 472.08 531.015 481.733 521.988 486.926C512.916 492.021 499.684 499.967 492.613 504.503C485.542 509.04 477.222 514.741 474.045 517.143C470.867 519.545 468.001 521.329 467.572 521.169C467.188 521.107 468.007 519.783 469.31 518.475C470.657 517.266 476.886 511.926 483.008 506.873C489.175 501.918 500.145 493.7 507.421 488.832C514.652 483.866 526.705 476.459 534.25 472.18C543.125 467.175 556.003 461.054 570.82 454.759C583.378 449.497 599.108 443.379 605.701 441.435C612.249 439.393 618.359 437.433 619.145 437.074C620.422 436.49 616.526 427.702 584.536 360.026C564.602 317.954 532.43 248.58 477.312 127.941L471.148 130.045C467.771 131.231 463.716 132.491 462.009 132.914C459.374 133.643 459.267 133.929 460.768 137.994C461.648 140.441 476.236 172.369 493.318 208.976C513.227 251.772 530.347 290.024 541.232 315.925C550.553 338.147 565.306 372.256 590.057 427.208L588.238 429.464C587.23 430.637 579.828 434.969 571.952 439.042C563.933 443.063 551.324 449.773 543.689 453.855C536.055 457.937 525.787 464.054 520.743 467.308C515.699 470.563 508.459 475.77 504.631 478.826C500.802 481.881 492.423 489.272 485.98 495.184C479.538 501.096 470.625 509.918 466.103 514.835C461.679 519.706 457.468 524.005 456.78 524.319C456.191 524.588 457.339 522.163 459.388 518.852C461.483 515.639 467.314 507.869 472.361 501.763C477.364 495.558 485.954 486.29 491.45 481.166C496.902 475.945 506.21 468.248 512.11 464.009C518.011 459.769 528.099 453.26 534.563 449.475C541.519 445.466 551.842 440.512 559.881 437.314C567.286 434.287 576.245 431.025 579.756 430.133C583.222 429.143 586.161 428.038 586.321 427.609C586.481 427.179 575.008 401.547 560.816 370.745C546.677 339.799 514.837 270.63 444.847 119.262L435.512 122.221C430.429 123.831 426.07 125.466 425.91 125.896C425.75 126.325 447 173.615 473.016 231.077C505.128 302.14 524.229 343.168 532.466 359.117C539.213 372.065 547.756 388.943 551.641 396.667C555.841 405.079 559.145 412.832 559.804 416.093C560.472 419.113 560.488 422.787 559.901 424.362C558.691 427.171 558.298 427.35 549.069 430.023C542.529 431.823 535.661 434.724 527.883 438.753C521.534 442.01 513.141 447.032 509.178 449.793C505.259 452.652 498.994 457.652 495.3 461.002C491.605 464.352 485.076 471.373 480.688 476.584C475.132 483.397 470.73 490.396 465.227 501.222C461.114 509.633 456.689 518.661 455.478 521.47C454.366 524.234 453.844 526.729 454.416 526.942C455.132 527.209 455.025 527.495 454.248 527.613C453.569 527.686 452.651 529.055 452.26 530.54C451.87 532.025 451.567 532.401 451.6 531.435C451.634 530.47 450.983 531.124 450.245 532.886C449.506 534.648 449.205 536.329 449.635 536.489C450.064 536.65 455.672 533.85 462.226 530.261C468.736 526.575 484.488 518.428 497.321 512.208C510.109 505.891 538.492 493.16 560.419 483.973C582.301 474.688 608.328 464.34 618.163 460.915C628.195 457.401 638.395 453.216 641.404 451.485C645.654 448.83 647.108 447.335 648.388 443.9C649.295 441.467 649.591 437.175 649.128 433.824C648.613 430.616 647.55 426.471 646.787 424.801C645.934 422.934 645.788 421.576 646.512 421.601C647.237 421.627 649.38 425.278 651.445 429.797C654.048 435.495 655.083 439.06 654.883 442.001C654.852 444.272 653.911 447.67 652.931 449.424C651.123 452.744 650.632 452.968 558.581 495.025C489.715 526.49 463.645 538.044 456.614 540.069C451.486 541.581 446.375 542.61 445.373 542.236C443.987 541.801 441.627 537.417 436.025 524.895C431.904 515.616 427.899 505.809 427.035 502.879C425.865 499.019 428.286 503.019 436.021 518.129C441.719 529.3 446.715 538.417 447.207 538.193C447.6 538.013 447.732 537.003 447.623 535.984C447.37 534.912 449.912 527.219 453.06 518.775C456.253 510.429 461.175 499.63 463.811 494.745C466.448 489.859 471.161 482.243 474.264 477.857C477.267 473.516 483.081 466.228 487.051 461.921C491.074 457.47 498.122 450.806 502.647 447.195C507.127 443.486 515.054 437.964 520.143 434.808C525.232 431.651 534.627 427.003 552.338 419.505L413.462 114.246L408.8 116.257C406.103 117.371 400.012 120.154 395.243 122.451C390.474 124.749 382.581 129.305 377.832 132.425C373.127 135.643 366.531 140.438 363.193 143.269C359.855 146.1 354.965 150.472 352.262 153.132C349.559 155.792 344.18 161.693 340.488 166.349C336.752 170.906 331.519 178.165 328.81 182.372C326.056 186.48 321.718 194.399 319.154 199.964C316.448 205.476 312.943 214.439 308.163 229.448L323.424 262.849C331.817 281.22 346.991 315.73 357.227 339.434C367.463 363.138 381.983 396.997 389.535 414.565C397.087 432.133 402.772 446.397 402.2 446.183C401.726 445.925 390.832 424.422 378.026 398.211C365.264 372.099 342.95 324.82 328.399 293.232C313.946 261.598 301.727 233.814 301.23 231.428C300.311 227.336 300.078 227.086 296.376 226.521C294.212 226.203 286.36 224.091 278.945 221.898C271.531 219.704 261.711 217.185 257.142 216.541C252.528 215.799 242.31 215.005 234.434 214.922C226.514 214.741 215.038 215.353 208.917 216.25C202.795 217.147 192.966 219.025 187.159 220.61C180.431 222.259 171.026 225.844 161.55 230.054C153.351 233.682 146.457 237.306 146.146 237.924C145.977 238.594 176.672 307.337 283.456 542.354L302.416 533.691C316.366 527.318 323.959 524.443 330.588 522.839C335.654 521.711 343.777 520.256 348.773 519.755C353.768 519.254 361.661 518.854 366.246 519.015C370.877 519.274 378.682 519.983 383.681 520.787C388.536 521.537 398.588 524.307 405.798 526.831C413.052 529.454 419.109 531.793 419.235 532.329C419.414 532.722 414.612 531.829 408.666 530.508C402.576 529.135 394.367 527.542 390.423 526.968C386.337 526.342 379.444 525.81 374.957 525.604C370.416 525.541 363.113 525.672 358.751 526.002C354.435 526.43 346.902 527.616 342.175 528.707C337.494 529.896 328.801 532.442 322.834 534.456C316.867 536.47 307.649 540.207 302.201 542.577C296.798 545.046 290.233 547.57 287.552 548.201C284.675 548.922 281.636 548.767 279.829 547.93C277.359 546.683 276.632 545.353 274.251 538.841C272.705 534.679 265.188 516.145 257.42 497.845C248.051 475.605 235.932 449.081 221.063 418.271C208.759 392.899 186.294 345.809 171.134 313.667C155.929 281.428 143.319 255.127 142.979 255.164C142.64 255.2 138.943 257.245 126.907 264.169L127.925 268.217C128.429 270.361 158.289 336.754 194.331 415.641C230.374 494.527 261.872 562.428 268.715 574.026L283.779 566.193C292.343 561.806 307.222 555.126 318.396 550.733C329.132 546.422 342.54 541.721 348.008 540.173C353.52 538.723 362.67 536.918 368.247 536.388C373.824 535.859 384.174 535.642 391.264 536.084C398.308 536.428 408.375 537.41 413.615 538.222C418.854 539.034 422.789 539.849 422.2 540.118C421.61 540.388 416.14 540.631 409.954 540.607C403.769 540.583 393.508 540.996 387.207 541.5C380.951 542.102 371.54 543.077 366.295 543.811C361.049 544.545 352.194 546.216 346.592 547.47C341.034 548.821 332.448 551.082 327.517 552.504C322.63 554.024 315.091 556.756 310.724 558.632C306.357 560.509 295.685 565.741 271.209 578.705L264.294 576.046L256.678 557.557C251.954 546.178 238.957 518.511 222.579 485.264C203.895 447.489 186.177 409.748 163.086 358.43C144.97 318.259 129.79 285.295 129.406 285.233C128.976 285.073 124.985 287.253 120.539 289.997C113.62 294.346 112.469 295.465 112.839 297.315C113.136 298.485 144.771 367.986 252.978 603.778L255.88 602.333C257.55 601.57 265.496 596.871 273.693 591.939C283.633 585.972 295.807 579.697 310.216 573.114C324.505 566.704 336.813 561.675 346.39 558.724C354.358 556.152 366.599 553.053 373.506 551.797C380.413 550.542 393.237 548.72 401.923 547.72C410.61 546.72 418.314 546.168 419.128 546.39C420.052 546.681 420.187 546.975 419.532 547.274C418.942 547.544 412.947 548.977 406.175 550.527C399.357 551.98 387.85 554.862 380.532 556.781C373.215 558.699 359.636 562.765 350.248 565.868C340.859 568.97 323.235 575.359 311.034 580.103C294.322 586.669 285.972 590.485 277.141 595.588C270.632 599.275 263.034 603.696 260.221 605.337C256.373 607.571 254.416 608.227 252.449 607.82C249.811 607.244 249.138 605.77 220.863 545.184C204.948 511.131 174.814 445.695 115.79 316.51L111.192 319.442C108.675 320.948 105.14 323.869 103.428 325.839C101.716 327.809 99.9778 330.503 99.6407 331.844C99.0902 333.758 99.7466 335.715 102.85 340.947C104.993 344.599 109.953 353.376 113.962 360.331C118.976 368.966 131.084 394.427 151.821 439.813C174.496 489.183 188.054 520.157 204.04 559.045C215.931 587.93 227.39 615.35 229.545 620.066C233.27 628.219 233.593 628.666 237.743 630.213C240.508 631.325 244.03 631.497 247.533 630.847C250.598 630.277 258.288 627.357 264.727 624.297C271.211 621.334 284.221 614.203 293.658 608.347C309.907 598.43 313.301 596.76 356.26 577.727C394.306 560.937 404.212 556.887 417.353 552.901C426.045 550.355 433.461 548.392 434.033 548.605C434.651 548.917 431.874 550.898 427.83 553.221C423.883 555.499 412.204 561.904 402.006 567.394C391.809 572.884 368.206 584.381 349.54 592.909C330.875 601.437 304.965 612.562 291.933 617.567C278.946 622.669 262.815 629.208 256.188 632.117C245.631 636.821 243.728 637.335 240.465 636.688C238.452 636.183 234.703 634.215 227.461 628.499L212.101 595.142C203.708 576.771 189.878 548.06 181.523 531.334C173.169 514.608 157.4 481.913 146.709 458.774C135.919 435.679 120.342 400.284 112.008 380.224C103.673 360.164 96.0744 341.192 95.0226 338.111C93.665 334.1 93.4635 331.579 94.407 329.486C95.0921 327.867 97.6692 324.67 100.212 322.44C102.711 320.111 106.933 316.876 114.351 312.061L111.209 305.184C109.369 301.157 108.244 297.396 108.483 296.099C108.837 294.275 111.167 292.617 128.222 283.162L125.571 276.061C124.16 272.193 122.901 268.137 122.837 267.217C122.772 266.296 123.261 264.767 124.064 263.925C124.867 263.083 129.17 260.286 142.037 253.101L139.703 247.992C138.401 245.143 137.338 240.998 137.361 238.969C137.339 236.841 138.066 234.015 138.976 232.887C139.939 231.616 142.151 229.18 143.953 227.407C145.755 225.633 150.059 222.836 153.595 221.22ZM502.047 137.896C504.503 136.774 508.157 135.935 510.088 136.003C512.019 136.071 514.837 137.04 516.341 138.252C517.8 139.367 520.721 142.901 522.926 146.168C525.266 149.73 537.741 175.736 553.953 210.959C571.475 248.79 583.111 275.298 586.867 285.338C589.905 293.806 592.808 301.979 593.142 303.489C593.476 304.999 593.38 306.349 592.79 306.618C592.201 306.888 590.742 305.773 589.389 304.372C588.09 302.828 584.737 297.829 581.904 293.187C579.213 288.597 572.951 276.971 568.115 267.425C563.376 257.834 552.98 234.559 545.14 215.58C537.299 196.6 528.289 173.761 525.125 164.757C520.873 152.331 518.772 147.472 516.55 144.688C514.605 142.251 512.243 140.718 510.034 140.303C508.013 140.038 504.581 140.063 502.302 140.273C499.969 140.626 497.985 140.701 497.85 140.407C497.716 140.112 499.591 139.018 502.047 137.896ZM202.572 263.442C208.458 260.99 214.347 259.843 229.825 258.115C240.693 256.95 252.857 256.023 256.862 256.212C260.822 256.303 266.499 257.033 269.325 257.761C272.25 258.444 277.537 260.659 281.143 262.574C284.749 264.489 288.678 266.85 289.851 267.858C291.077 268.722 291.812 269.812 291.509 270.188C291.152 270.707 288.292 270.945 285.003 271.023C281.767 270.957 269.275 268.827 257.283 266.232C245.246 263.538 233.962 261.45 231.977 261.525C230.038 261.699 224.399 262.613 219.288 263.642C214.177 264.67 205.94 266.653 200.812 268.165C195.782 269.631 191.547 270.498 191.367 270.105C191.143 269.614 191.901 268.674 193.088 267.894C194.132 267.06 198.455 265.085 202.572 263.442ZM398.591 175.783C402.279 173.979 406.282 172.862 409.035 172.911C413.147 172.813 413.335 172.965 411.97 174.657C411.114 175.642 403.937 180.465 396.08 185.361C388.179 190.158 379.261 196.37 376.263 199.165C372.515 202.659 366.712 211.01 356.981 226.618C349.443 238.968 342.91 248.84 342.436 248.582C341.917 248.225 341.69 246.429 341.713 244.4C341.78 242.469 343.44 236.486 345.37 231.092C347.442 225.751 350.665 219.291 352.743 216.561C354.767 213.974 363.831 204.964 372.727 196.624C381.623 188.285 389.761 180.886 390.707 180.097C391.697 179.407 395.198 177.452 398.493 175.827L398.591 175.783ZM221.522 304.657C227.408 302.206 233.297 301.059 248.775 299.331C259.643 298.165 271.806 297.239 275.811 297.428C279.772 297.518 285.449 298.249 288.275 298.977C291.199 299.659 296.487 301.875 300.093 303.79C303.699 305.705 307.627 308.066 308.8 309.074C310.027 309.938 310.762 311.027 310.36 311.448C310.102 311.922 307.144 312.205 303.953 312.238C300.619 312.218 288.225 310.043 276.233 307.447C264.196 304.753 252.813 302.711 250.927 302.741C248.988 302.915 243.349 303.828 238.238 304.857C233.127 305.886 224.889 307.869 219.762 309.38C214.732 310.847 210.496 311.714 210.317 311.321C210.093 310.829 210.851 309.889 211.94 309.154C213.082 308.276 217.405 306.301 221.522 304.657ZM416.545 215.078C420.332 213.23 424.334 212.114 427.087 212.162C431.199 212.064 431.387 212.216 430.023 213.908C429.166 214.893 421.989 219.716 414.132 224.612C406.231 229.409 397.313 235.621 394.315 238.416C390.567 241.91 384.764 250.261 375.034 265.869C367.495 278.219 360.962 288.091 360.488 287.833C359.969 287.476 359.742 285.68 359.765 283.651C359.833 281.72 361.492 275.737 363.422 270.343C365.494 265.002 368.717 258.542 370.795 255.812C372.819 253.225 381.883 244.215 390.779 235.875C399.675 227.536 407.813 220.137 408.759 219.348C409.75 218.658 413.25 216.703 416.545 215.078ZM240.374 345.918C246.26 343.466 252.148 342.32 267.627 340.591C278.494 339.426 290.658 338.5 294.663 338.688C298.623 338.779 304.301 339.51 307.127 340.237C310.051 340.92 315.338 343.136 318.944 345.05C322.55 346.965 326.479 349.326 327.652 350.334C328.878 351.199 329.613 352.288 329.212 352.709C328.954 353.183 325.995 353.466 322.804 353.499C319.47 353.479 307.077 351.304 295.085 348.708C283.048 346.014 271.665 343.971 269.779 344.002C267.839 344.175 262.201 345.089 257.09 346.118C251.979 347.147 243.741 349.13 238.613 350.641C233.583 352.108 229.348 352.974 229.169 352.581C228.944 352.09 229.702 351.15 230.791 350.415C231.934 349.537 236.256 347.562 240.374 345.918ZM435.397 256.339C439.183 254.49 443.186 253.374 445.939 253.422C450.05 253.325 450.238 253.477 448.874 255.169C448.018 256.154 440.84 260.977 432.984 265.873C425.082 270.67 416.164 276.882 413.166 279.677C409.419 283.17 403.616 291.521 393.885 307.13C386.347 319.48 379.814 329.352 379.34 329.094C378.82 328.737 378.594 326.941 378.616 324.912C378.684 322.981 380.344 316.997 382.273 311.604C384.346 306.263 387.569 299.803 389.646 297.073C391.671 294.485 400.735 285.475 409.631 277.136C418.526 268.797 426.664 261.398 427.61 260.609C428.601 259.919 432.101 257.963 435.397 256.339ZM259.225 387.179C265.111 384.727 271 383.58 286.478 381.852C297.346 380.687 309.51 379.76 313.515 379.949C317.475 380.04 323.152 380.771 325.978 381.498C328.903 382.181 334.19 384.396 337.796 386.311C341.402 388.226 345.331 390.587 346.504 391.595C347.73 392.46 348.465 393.549 348.064 393.97C347.805 394.444 344.847 394.727 341.656 394.76C338.322 394.739 325.928 392.565 313.936 389.969C301.899 387.275 290.516 385.232 288.63 385.262C286.691 385.436 281.052 386.35 275.941 387.379C270.83 388.408 262.593 390.39 257.465 391.902C252.435 393.369 248.2 394.235 248.02 393.842C247.796 393.351 248.554 392.411 249.643 391.676C250.785 390.798 255.108 388.823 259.225 387.179ZM454.248 297.6C458.035 295.751 462.037 294.635 464.79 294.683C468.902 294.586 469.09 294.737 467.726 296.429C466.869 297.414 459.692 302.237 451.835 307.133C443.934 311.931 435.016 318.143 432.018 320.938C428.271 324.431 422.468 332.782 412.737 348.39C405.198 360.74 398.665 370.613 398.191 370.354C397.672 369.998 397.445 368.202 397.468 366.172C397.536 364.241 399.196 358.258 401.125 352.864C403.197 347.524 406.421 341.064 408.498 338.333C410.522 335.746 419.586 326.736 428.482 318.397C437.378 310.058 445.516 302.658 446.462 301.87C447.453 301.18 450.953 299.224 454.248 297.6ZM278.077 428.439C283.963 425.988 289.851 424.841 305.33 423.113C316.197 421.947 328.361 421.021 332.366 421.21C336.326 421.3 342.004 422.031 344.83 422.759C347.754 423.441 353.041 425.657 356.647 427.572C360.253 429.487 364.182 431.848 365.355 432.856C366.581 433.72 367.317 434.809 366.915 435.23C366.657 435.705 363.699 435.987 360.508 436.02C357.173 436 344.78 433.825 332.788 431.229C320.751 428.535 309.368 426.493 307.482 426.523C305.543 426.697 299.904 427.61 294.793 428.639C289.682 429.668 281.444 431.651 276.316 433.163C271.287 434.629 267.051 435.496 266.872 435.103C266.647 434.612 267.405 433.672 268.494 432.936C269.637 432.058 273.959 430.083 278.077 428.439ZM296.929 469.7C302.815 467.248 308.703 466.102 324.182 464.373C335.049 463.208 347.213 462.282 351.218 462.471C355.178 462.561 360.855 463.292 363.682 464.02C366.606 464.702 371.893 466.918 375.499 468.833C379.105 470.747 383.034 473.109 384.207 474.116C385.433 474.981 386.168 476.07 385.767 476.491C385.508 476.965 382.55 477.248 379.359 477.281C376.025 477.261 363.631 475.086 351.64 472.49C339.603 469.796 328.22 467.753 326.334 467.784C324.394 467.957 318.756 468.871 313.645 469.9C308.534 470.929 300.296 472.912 295.168 474.423C290.138 475.89 285.903 476.756 285.723 476.363C285.499 475.872 286.257 474.932 287.346 474.197C288.488 473.319 292.811 471.344 296.929 469.7Z" fill="#4F99DD" fill-opacity="0.25"/>
</g>
<defs>
<clipPath id="clip0_276_8301">
<rect width="553" height="553" fill="white" transform="translate(0 230.717) rotate(-24.5552)"/>
</clipPath>
</defs>
</svg>
