<svg xmlns="http://www.w3.org/2000/svg" xml:space="preserve" width="360" height="360" style="shape-rendering:geometricPrecision;text-rendering:geometricPrecision;image-rendering:optimizeQuality;fill-rule:evenodd;clip-rule:evenodd" viewBox="0 0 45.4 45.4"><defs><clipPath id="a"><path d="M0 0h45.4v45.4H0V0z"/></clipPath></defs><g style="clip-path:url(#a)"><path d="M17.34 2.41c.08 0 .53.31.98.67.46.37 1.19 1.04 1.61 1.49.42.46 1.3 1.48 1.94 2.27.64.79 1.15 1.49 1.13 1.54-.01.07-.86-.65-1.89-1.58-1.02-.92-2.3-2.12-3.78-3.61l-2.02 1.98c-1.1 1.09-2.62 2.46-3.36 3.05-.75.59-1.51 1.26-1.71 1.49-.19.23-.38.55-.42.73-.04.23.02.46.23.86.2.38.65.87 1.36 1.52.59.54 1.65 1.52 3.66 3.43l.81-.76c.44-.43 1.68-1.49 2.75-2.37 1.11-.91 2.5-2.2 3.25-2.98.72-.76 1.3-1.44 1.29-1.52-.02-.07.01-.11.07-.08.06.03.26-.08.45-.24.18-.15.57-.42.86-.58.36-.22.66-.3.99-.3.33 0 .62.09.99.31.29.17.8.59 1.14.94.34.35 1.04 1.1 1.55 1.68.51.56 3.12 3.13 5.79 5.7 2.66 2.57 5.51 5.29 6.32 6.04.79.75 2.01 1.9 2.68 2.57.68.66 1.52 1.56 1.87 1.99.36.43.84 1.07 1.07 1.42.22.34.57.95.77 1.36.21.4.47 1.05.59 1.46.16.5.25 1.11.27 1.93.04.73.01 1.48-.07 1.92-.08.41-.24 1.01-.35 1.36-.13.34-.34.85-.49 1.14-.15.28-.43.78-.65 1.09-.21.31-.69.87-1.06 1.23-.37.36-.95.85-1.3 1.08-.35.24-.91.54-1.25.71-.35.15-1.09.4-1.64.54-.75.18-1.3.25-2.02.25-.71-.01-1.26-.08-1.99-.27-.57-.15-1.28-.43-1.59-.61-.32-.18-.86-.51-1.2-.74-.34-.24-.89-.65-1.22-.91-.33-.26-.6-.54-.59-.62 0-.06.43.18.96.56.52.38 1.17.8 1.42.94.26.13.79.35 1.2.47.41.13 1.12.28 1.61.34.53.05 1.24.06 1.77 0 .49-.05 1.29-.23 1.78-.4s1.14-.46 1.45-.64c.31-.18.9-.64 1.3-1.01s.88-.88 1.07-1.14c.19-.26.52-.82.73-1.24.23-.43.49-1.1.59-1.51.1-.41.22-1.05.26-1.46.04-.4.02-1.08-.04-1.51-.06-.43-.21-1.14-.35-1.56a9.89 9.89 0 0 0-.71-1.57c-.25-.43-.7-1.12-1-1.54-.31-.41-.95-1.18-1.44-1.72-.49-.53-1.93-1.96-3.21-3.16a150.12 150.12 0 0 1-2.85-2.75c-.28-.3-1.65-1.77-3.05-3.26-1.39-1.5-3.42-3.66-4.5-4.82-1.08-1.15-2.28-2.46-2.66-2.9-.4-.44-.89-.9-1.12-1.02-.23-.11-.57-.21-.75-.21-.19 0-.51.1-.71.22-.2.12-.57.39-.82.59-.25.21-1.12 1.14-1.94 2.08-.82.94-2.29 2.55-3.28 3.58-.99 1.02-2.38 2.41-3.09 3.07-1.24 1.16-1.3 1.24-1.22 1.54.04.17.2.51.37.75.15.25.78.9 1.37 1.46.59.55 2.04 2.04 3.22 3.3 1.17 1.27 2.67 2.95 3.33 3.76.66.81 1.2 1.51 1.2 1.57 0 .06-.11.01-.23-.12-.14-.11-.84-.77-1.59-1.45-.74-.69-2.58-2.44-4.09-3.87-1.51-1.45-3.1-2.99-3.52-3.42-.43-.43-.87-.97-.96-1.19-.09-.2-.17-.6-.17-.88 0-.38.07-.62.33-1.01.17-.29.46-.7.93-1.3l-.95-.97c-.53-.54-1.47-1.42-2.1-1.94-.63-.53-1.31-1.19-1.52-1.46-.2-.28-.45-.67-.55-.87-.13-.24-.17-.52-.13-.83.03-.35.17-.65.51-1.15.27-.37 1.2-1.34 2.08-2.17.88-.83 1.94-1.93 2.37-2.43.42-.52.98-1.13 1.23-1.37.25-.25.69-.56.97-.7.29-.14.6-.26.68-.26zM18.4 7c.07 0 .34.25.61.56.26.29.49.56.49.59-.01.03-.29.33-1.27 1.3l-.51-.53c-.29-.29-.52-.6-.52-.71 0-.09.08-.3.19-.46.09-.14.35-.38.54-.51.2-.14.41-.24.47-.24zm-3.56 3.31c.06 0 .38.28 1.3 1.21l-.48.54c-.35.42-.53.55-.75.54-.2-.01-.44-.14-.73-.45-.23-.24-.44-.54-.46-.66-.02-.15.13-.37.49-.7.3-.26.57-.48.63-.48zm24.02 17.04c.26-.01.7.03.98.09.3.05.8.2 1.13.32.32.13.59.26.59.32 0 .07-.27.01-.59-.11-.49-.17-.79-.22-1.61-.19-.92.03-1.05.06-1.9.46-.65.32-1.09.63-1.56 1.08-.45.44-.8.93-1.09 1.48-.26.51-.48 1.12-.56 1.56-.1.53-.1.91-.03 1.41.06.38.26.98.44 1.36.2.39.59.94.96 1.32.41.4.88.76 1.35.99.69.34.78.36 1.82.37 1.05.01 1.13 0 1.93-.38.65-.31 1-.57 1.62-1.19.55-.55.91-1.03 1.15-1.53.2-.4.43-1.08.53-1.5.13-.64.14-.91.05-1.46-.06-.38-.14-.76-.17-.87-.03-.09-.02-.18.04-.18s.08.05.05.11-.02.1.03.1c.04 0 .16.26.25.6.1.33.21.91.24 1.28.03.38.01.96-.06 1.3-.06.35-.28.95-.48 1.35-.25.51-.54.9-.96 1.29-.35.3-.89.69-1.23.85-.32.16-.91.37-1.3.46-.49.11-.97.15-1.64.1-.6-.03-1.18-.15-1.61-.31a8.41 8.41 0 0 1-1.2-.56c-.29-.17-.72-.49-.97-.72-.25-.24-.64-.72-.86-1.06-.22-.35-.48-.91-.6-1.26-.11-.34-.23-.9-.26-1.25-.03-.34 0-.9.06-1.25.07-.34.27-.92.45-1.3.23-.47.54-.89 1.08-1.4.49-.48.99-.83 1.47-1.07.41-.2 1.02-.41 1.36-.48.35-.07.84-.13 1.1-.13z" style="fill:#7ddd4f;fill-opacity:.25098"/></g><path style="fill:none" d="M0 0h45.4v45.4H0z"/></svg>