<svg width="21" height="19" viewBox="0 0 21 19" fill="none" xmlns="http://www.w3.org/2000/svg">
<path fill-rule="evenodd" clip-rule="evenodd" d="M6.13561 12.0556L1.3075 10.816C0.818265 10.6869 0.763531 10.0612 1.22291 9.84912L19.8055 1.00233C20.1513 0.857462 20.5961 1.1624 20.5717 1.56571L18.5162 17.6776C18.4325 18.0861 17.9731 18.2983 17.6568 18.0967L12.6893 15.2646C12.373 15.0631 12.0172 15.0942 11.7407 15.3476L9.31113 17.6233C9.03957 17.9336 8.55033 17.8045 8.4019 17.4736L6.13561 12.0556ZM16.1416 4.87607L7.54318 11.0728C7.20238 11.2745 7.05934 11.6882 7.21275 12.0759L8.51424 15.3433C8.59343 15.5656 8.94418 15.4777 8.98357 15.245L9.0615 13.4042C9.09093 13.0578 9.23894 12.701 9.45619 12.4528L16.3394 5.088C16.5073 4.95869 16.3096 4.74676 16.1416 4.87607Z" fill="#4F7FDD"/>
</svg>
