<svg width="24" height="24" viewBox="0 0 24 24" fill="none" xmlns="http://www.w3.org/2000/svg">
<path d="M20.3262 7.85938C21.1465 7.24414 21.8848 6.50586 22.5 5.60352C21.6797 5.97266 20.8594 6.21875 20.0391 6.30078C20.9414 5.72656 21.5977 4.94727 21.9258 3.92188C21.0645 4.41406 20.1621 4.7832 19.1777 4.94727C18.7676 4.53711 18.2754 4.20898 17.7422 3.96289C17.209 3.7168 16.6348 3.59375 16.0195 3.59375C15.2402 3.59375 14.543 3.79883 13.8867 4.16797C13.2305 4.57812 12.6973 5.11133 12.3281 5.76758C11.918 6.42383 11.7539 7.16211 11.7539 7.90039C11.7539 8.22852 11.7539 8.55664 11.8359 8.88477C10.0723 8.80273 8.43164 8.39258 6.87305 7.57227C5.31445 6.79297 4.04297 5.72656 2.97656 4.37305C2.56641 5.07031 2.36133 5.80859 2.36133 6.54688C2.36133 7.28516 2.52539 7.98242 2.89453 8.59766C3.22266 9.25391 3.71484 9.74609 4.28906 10.1562C3.5918 10.1562 2.93555 9.95117 2.36133 9.58203V9.66406C2.36133 10.6895 2.68945 11.5918 3.3457 12.3711C4.00195 13.1914 4.82227 13.6836 5.80664 13.8887C5.39648 13.9707 5.02734 14.0117 4.6582 14.0117C4.41211 14.0117 4.125 14.0117 3.87891 13.9707C4.125 14.832 4.61719 15.5293 5.35547 16.1035C6.09375 16.6777 6.91406 16.9238 7.89844 16.9238C6.29883 18.1543 4.49414 18.7695 2.52539 18.7695C2.11523 18.7695 1.78711 18.7695 1.5 18.7285C3.46875 20.041 5.68359 20.6562 8.10352 20.6562C10.6055 20.6562 12.8203 20.041 14.7891 18.7285C16.5527 17.5801 17.9473 16.0625 18.9316 14.0938C19.875 12.2891 20.3672 10.3613 20.3672 8.39258C20.3672 8.14648 20.3262 7.98242 20.3262 7.85938Z" fill="#1A1B22"/>
</svg>
