<svg width="24" height="24" viewBox="0 0 24 24" fill="none" xmlns="http://www.w3.org/2000/svg">
<path fill-rule="evenodd" clip-rule="evenodd" d="M7.13561 14.0556L2.3075 12.816C1.81827 12.6869 1.76353 12.0612 2.22291 11.8491L20.8055 3.00233C21.1513 2.85746 21.5961 3.1624 21.5717 3.56571L19.5162 19.6776C19.4325 20.0861 18.9731 20.2983 18.6568 20.0967L13.6893 17.2646C13.373 17.0631 13.0172 17.0942 12.7407 17.3476L10.3111 19.6233C10.0396 19.9336 9.55033 19.8045 9.4019 19.4736L7.13561 14.0556ZM17.1416 6.87607L8.54318 13.0728C8.20238 13.2745 8.05934 13.6882 8.21275 14.0759L9.51424 17.3433C9.59343 17.5656 9.94418 17.4777 9.98357 17.245L10.0615 15.4042C10.0909 15.0578 10.2389 14.701 10.4562 14.4528L17.3394 7.088C17.5073 6.95869 17.3096 6.74676 17.1416 6.87607Z" fill="#1A1B22"/>
</svg>
