<svg width="24" height="24" viewBox="0 0 24 24" fill="none" xmlns="http://www.w3.org/2000/svg">
<path d="M16.2508 6.75028V4.37514C16.2508 3.74521 16.0006 3.14109 15.5552 2.69566C15.1098 2.25024 14.5056 2 13.8757 2H4.37514C3.74521 2 3.14109 2.25024 2.69566 2.69566C2.25024 3.14109 2 3.74521 2 4.37514V13.8757C2 14.5056 2.25024 15.1098 2.69566 15.5552C3.14109 16.0006 3.74521 16.2508 4.37514 16.2508H6.75028" fill="white"/>
<path d="M16.2508 6.75028V4.37514C16.2508 3.74521 16.0006 3.14109 15.5552 2.69566C15.1098 2.25024 14.5056 2 13.8757 2H4.37514C3.74521 2 3.14109 2.25024 2.69566 2.69566C2.25024 3.14109 2 3.74521 2 4.37514V13.8757C2 14.5056 2.25024 15.1098 2.69566 15.5552C3.14109 16.0006 3.74521 16.2508 4.37514 16.2508H6.75028" stroke="#4F7FDD" stroke-linecap="round" stroke-linejoin="round"/>
<path d="M18.6257 6.75049H9.12514C7.81339 6.75049 6.75 7.81387 6.75 9.12563V18.6262C6.75 19.9379 7.81339 21.0013 9.12514 21.0013H18.6257C19.9375 21.0013 21.0008 19.9379 21.0008 18.6262V9.12563C21.0008 7.81387 19.9375 6.75049 18.6257 6.75049Z" fill="#4F7FDD" stroke="#4F7FDD" stroke-linecap="round" stroke-linejoin="round"/>
</svg>
