<svg xmlns="http://www.w3.org/2000/svg" xml:space="preserve" width="360" height="360" style="shape-rendering:geometricPrecision;text-rendering:geometricPrecision;image-rendering:optimizeQuality;fill-rule:evenodd;clip-rule:evenodd" viewBox="0 0 31.16 31.16"><defs><clipPath id="a"><path d="M0 0h31.16v31.16H0V0z"/></clipPath></defs><g style="clip-path:url(#a)"><path d="M12.68 2.95c-.52.35-.93.67-1.32 1.06-.33.32-.8.86-1.12 1.29-.3.42-.69.99-.89 1.27-.19.29-.44.7-.55.91-.12.21-.21.39-.18.4.01.01.51-.6 1.1-1.37.68-.88 1.25-1.55 1.55-1.84.27-.24.78-.64 1.15-.89.36-.25.88-.56 1.14-.69.26-.13.69-.32.96-.43.27-.11.77-.28 1.1-.38.34-.09.94-.22 1.33-.29.39-.06 1.13-.11 1.65-.11.65-.01 1.29.06 2.08.21.83.15 1.38.31 2.01.57.48.19 1.15.52 1.49.72.33.2.85.55 1.12.76.29.21.69.56.9.76.2.2.56.59.8.85.25.29.63.82.91 1.28.27.43.61 1.08.77 1.45.15.38.37.99.48 1.37.1.38.23 1.03.29 1.45.05.41.1 1.1.1 1.53.01.42-.05 1.05-.11 1.39-.07.34-.19.88-.28 1.2-.09.32-.15.71-.13.86.04.28.07.33.76 1.16.39.49.84 1.1.99 1.36.16.27.31.61.33.75.03.14.02.35-.03.45-.07.17-.21.29-.77.67-.38.24-1.44.93-4.04 2.58l-.04-.17c-.02-.09-.17-.35-.33-.6-.16-.23-.56-.71-.89-1.06-.33-.34-.63-.63-.68-.65-.05-.01.08.27.32.65.21.37.61.98 1.35 2.01l-2.28 1.54c-1.83 1.25-2.32 1.56-2.48 1.57-.11.01-.25.01-.33 0-.11-.01-.28-.24-2.18-3.12l-.8-.12c-.44-.06-1.15-.18-1.57-.26-.42-.08-1.04-.25-1.38-.38-.34-.13-.87-.36-1.18-.51-.3-.16-.83-.47-1.17-.69-.34-.22-.89-.65-1.22-.94-.34-.29-.83-.76-1.09-1.03-.3-.32-.71-.84-1.12-1.43-.34-.51-.66-1.01-.69-1.11-.04-.11-.09-.17-.13-.15-.03.03.06.29.2.59s.38.8.53 1.1c.22.43.4.7.82 1.22.31.36.76.86 1.02 1.12.26.25.72.65 1.01.88.3.22.8.57 1.12.76.32.19.89.48 1.24.64.37.16 1.04.4 1.49.53.46.13 1.22.29 1.68.34.78.1.87.13.95.29.04.11.17.36.28.55.11.2.46.7.79 1.11.33.41.68.83.79.91.11.08.31.18.46.21.14.04.34.05.46.04.12-.02.4-.12.64-.23.32-.15.63-.38 1.39-1 .78-.63 1.56-1.19 3.75-2.67 1.52-1.02 3.06-2.06 3.43-2.29.55-.35.69-.47.86-.73.16-.24.19-.35.14-.59-.03-.16-.14-.49-.25-.73-.12-.26-.51-.87-1.67-2.52l.21-.71c.12-.39.27-1.04.33-1.44.06-.4.11-1.07.12-1.48.01-.41-.01-1.09-.06-1.48-.05-.4-.15-1.02-.23-1.37-.08-.35-.27-.95-.41-1.33-.14-.38-.4-.98-.57-1.34a11.5 11.5 0 0 0-.58-1.05c-.15-.21-.48-.64-.73-.95-.25-.3-.68-.75-.94-1.01-.26-.25-.7-.64-.99-.85-.27-.21-.84-.57-1.24-.8-.4-.22-1.07-.54-1.47-.69-.41-.15-1.15-.36-1.65-.47-.51-.11-1.32-.22-1.81-.24-.5-.03-1.21-.01-1.6.02-.38.03-.97.13-1.32.2-.35.08-.89.22-1.22.33-.33.11-.88.33-1.25.49-.41.18-.96.49-1.42.79zm16.27 24.47c-.19.12-.57.41-.85.63-.27.24-.68.62-.91.87-.23.25-.4.47-.38.5.02.03.18.01.35-.06.17-.07.59-.25.95-.39.39-.17.87-.44 1.28-.72.41-.27.84-.62 1.14-.93.27-.27.59-.6.72-.73.12-.14.2-.27.19-.3-.03-.04-.31.05-.64.18s-.81.35-1.06.48-.61.34-.79.47zm-5.78-11.25c-.1.58-.21 1.32-.24 1.64-.03.32-.03.61-.01.65.02.04.1.03.16-.01a.72.72 0 0 0 .21-.26c.06-.1.13-.36.16-.58.03-.21.05-.83.04-1.37-.01-.54-.05-1.01-.08-1.06-.03-.04-.14.4-.24.99zm-3.61 1.62c-.02.02-.03.04-.02.06.01.01.48.17 1.04.34.55.17 1.26.37 1.57.44.44.1.56.1.57.01.02-.1-.01-.17-.18-.29-.12-.1-.41-.22-.64-.28-.25-.07-.85-.16-1.37-.21-.51-.05-.94-.08-.97-.07zm7.33 6.4c-2.05 1.39-3 2.06-3.37 2.39-.28.25-.55.52-.59.6-.05.09-.08.28-.08.41.01.2.09.37.3.69.16.24.43.54.62.69.17.15.42.29.54.31.11.02.24.03.27.01.03-.02.02-.06-.01-.08-.04-.02-.1-.01-.14.01-.03.03-.19-.04-.33-.15-.15-.12-.38-.39-.51-.59-.13-.21-.25-.47-.27-.58-.02-.12.03-.31.1-.44.12-.19.21-.25.76-.52.42-.21 1.16-.68 2.36-1.5 1.25-.85 1.95-1.38 2.49-1.85.42-.35 1-.79 1.3-.98.49-.31.55-.33.74-.27.17.05.27.15.53.54.18.27.36.58.39.7.04.12.03.28-.01.36-.04.07-.34.32-.67.54-.34.23-1.1.69-1.69 1.02-.87.48-1.22.72-1.88 1.23-.44.35-1.13.92-1.54 1.25-.4.34-.88.73-1.06.86-.32.23-.31.22.18-.04.28-.16 1.16-.66 1.96-1.12.8-.46 1.99-1.2 2.66-1.66.88-.6 1.34-.95 1.68-1.28.26-.25.51-.55.57-.67.05-.11.08-.33.06-.48-.02-.21-.11-.39-.42-.85-.26-.38-.46-.62-.61-.71a.674.674 0 0 0-.38-.12c-.1.01-.39.1-.64.19-.42.15-.75.36-3.31 2.09z" style="fill:#ddd74f;fill-opacity:.25098"/></g><path style="fill:none" d="M0 0h31.16v31.16H0z"/></svg>