<svg xmlns="http://www.w3.org/2000/svg" xml:space="preserve" width="1039" height="1039" style="shape-rendering:geometricPrecision;text-rendering:geometricPrecision;image-rendering:optimizeQuality;fill-rule:evenodd;clip-rule:evenodd" viewBox="0 0 72.2 72.2"><defs><clipPath id="a"><path d="M0 0h72.2v72.2H0V0z"/></clipPath></defs><g style="clip-path:url(#a)"><path d="M51.1 6.07c-.65-.01-1.63.1-2.44.27-.75.17-1.67.41-2.03.56-.38.15-1.02.45-1.43.68-.4.23-1.08.68-1.49 1-.41.31-1.06.96-1.44 1.44-.38.47-.9 1.29-1.17 1.8-.26.52-.57 1.38-.7 1.9-.15.62-.21 1.35-.19 2.17.03.68.09 1.12.13 1.02.04-.11.19-.67.32-1.23.12-.55.44-1.45.68-1.96.23-.52.73-1.34 1.1-1.82.36-.49 1.03-1.16 1.48-1.53.44-.35 1.2-.85 1.69-1.11.49-.26 1.37-.61 1.97-.8.59-.19 1.69-.41 2.44-.5.99-.11 1.7-.13 2.64-.02.7.08 1.72.27 2.24.44.51.16 1.31.47 1.76.69.45.23 1.19.68 1.65 1 .48.33 1.17.98 1.55 1.44.39.47.87 1.19 1.07 1.6.2.41.47 1.18.61 1.69.18.72.22 1.33.18 2.51-.06 1.34-.14 1.76-.57 3.05-.27.83-.86 2.23-1.3 3.12-.44.9-1.24 2.29-1.78 3.12-.57.85-1.45 1.95-2.08 2.57-.61.61-1.46 1.32-1.91 1.59-.44.27-1.2.62-1.69.79-.49.16-.94.35-1.02.43-.09.1.18.12.88.07.56-.04 1.39-.2 1.83-.38.45-.16 1.18-.52 1.63-.77.45-.27 1.34-1.01 1.98-1.64.65-.64 1.5-1.68 1.92-2.32.43-.64.94-1.55 1.16-2.04.21-.48.57-1.39.76-2.03.2-.64.46-1.76.58-2.51.15-1 .19-1.88.14-3.39-.05-1.23-.17-2.36-.3-2.84-.13-.45-.49-1.36-.82-2.04-.32-.68-.93-1.62-1.34-2.14-.42-.5-1.08-1.14-1.46-1.44-.4-.28-1.06-.7-1.47-.93-.4-.22-1.11-.54-1.56-.69-.44-.17-1.33-.41-1.96-.55-.64-.13-1.64-.25-2.24-.27zm8.33 24.12c-.07 0-.13.39-.13.88 0 .57.11 1.16.3 1.67.19.5.5.98.92 1.38.34.34 1.05.82 1.58 1.07.51.25 2.06.78 3.44 1.18 1.38.4 2.85.86 3.25 1.02.41.16 1.16.57 1.66.91.5.32 1.15.91 1.43 1.3.3.38.66.91.78 1.17.13.25.39.89.57 1.42.17.53.4 1.53.51 2.24.11.7.21 1.38.21 1.49 0 .12-.59.53-1.39.97-.77.43-1.91.99-2.55 1.27-.63.27-2.59 1.01-4.33 1.65-1.75.64-3.9 1.36-4.75 1.6-.85.24-2.29.61-3.19.8-.89.2-1.77.39-1.96.43-.27.06-.3.1-.14.19.11.08 1.03.14 2.04.14 1 0 2.38-.1 3.05-.2.67-.11 1.68-.33 2.23-.48.56-.16 1.45-.45 1.97-.64.53-.19 1.31-.53 1.76-.76.45-.21 1.79-.99 2.98-1.72 1.2-.72 2.77-1.62 4.82-2.71l.09-1.04c.04-.59.02-1.7-.07-2.48-.08-.8-.29-1.88-.48-2.44-.21-.56-.57-1.35-.83-1.73-.26-.39-.76-1-1.11-1.34-.37-.34-1.05-.85-1.53-1.14-.49-.28-1.35-.68-1.9-.85-.56-.19-2.09-.57-3.39-.84-1.43-.3-2.73-.67-3.26-.9-.48-.23-1.03-.54-1.19-.7a4.37 4.37 0 0 1-.64-.84c-.17-.3-.39-.87-.47-1.25-.08-.39-.22-.72-.28-.72zM42.18 45.96c-.05.16-.07.64-.03 1.04.06.41.21 1.14.34 1.63.15.49.5 1.23.8 1.67.33.43.92 1.03 1.41 1.37.46.34 1.24.78 1.72 1 .49.22 2.13.81 3.66 1.3 1.54.5 3.22 1.11 3.73 1.37.53.25 1.28.75 1.68 1.1.4.37.87.95 1.05 1.31.17.36.39 1.05.49 1.56.08.51.12 1.02.06 1.16-.05.12-1.26.81-2.76 1.57-1.48.73-3.3 1.6-4.04 1.91-.75.31-2.12.85-3.05 1.18-.94.33-2.48.81-3.46 1.06-.96.26-2.43.58-3.25.73-.83.15-2.3.34-3.26.43-1.04.1-2.59.13-3.79.08-1.16-.05-2.89-.23-4-.42-1.09-.19-2.7-.54-3.6-.8-.89-.25-2.36-.75-3.25-1.11-.9-.35-2.43-1.04-3.39-1.52s-2.55-1.31-5.25-2.82l.08-1.08c.06-.83.17-1.29.47-1.9.23-.46.66-1.04.99-1.33.32-.28 1.08-.76 1.68-1.03.59-.28 1.75-.72 2.57-.95.83-.24 2.16-.66 2.99-.92.82-.26 1.91-.69 2.44-.96.51-.29 1.31-.84 1.76-1.26.45-.42 1-1.13 1.25-1.56.23-.43.52-1.22.65-1.75.12-.53.2-1.29.13-2.44l-.31 1.22c-.16.66-.43 1.49-.6 1.83-.16.34-.58.91-.92 1.27-.34.37-.91.86-1.29 1.1-.36.25-1.09.6-1.62.82-.53.2-2.2.69-3.73 1.08-1.53.39-3.12.85-3.53 1.02-.4.16-1.08.5-1.49.74-.41.25-1.03.76-1.38 1.14-.37.38-.8 1.03-.99 1.44-.19.41-.39 1.12-.48 1.6-.06.46-.13 1.16-.13 1.56 0 .38.05.83.13.97.09.17.89.63 1.94 1.14.98.48 2.71 1.22 3.83 1.68 1.12.45 3.03 1.16 4.27 1.58 1.23.42 3.18.99 4.34 1.29 1.15.29 2.95.66 4 .81 1.04.15 2.3.34 2.82.42.5.07 1.89.13 3.11.13 1.51 0 2.77-.08 4.03-.27 1-.15 2.17-.34 2.58-.42.4-.06 1.54-.35 2.5-.62.98-.26 2.4-.71 3.19-.99.79-.29 2.31-.9 3.39-1.36a63.15 63.15 0 0 0 3.8-1.79c1-.52 1.96-1.08 2.14-1.24.26-.25.3-.42.3-1.24 0-.53-.13-1.43-.27-2.03-.17-.6-.43-1.3-.57-1.56-.17-.26-.49-.7-.71-.99-.23-.3-.81-.79-1.3-1.11-.49-.33-1.34-.77-1.9-1-.55-.22-2.11-.7-3.46-1.03-1.34-.34-2.83-.76-3.32-.91-.49-.15-1.24-.46-1.69-.69-.45-.24-1.11-.7-1.49-1.05-.37-.35-.84-.97-1.06-1.37-.2-.4-.48-1.26-.61-1.91-.18-.91-.26-1.11-.34-.88zm-6.9-27.01c-1.14-.01-2.01.07-2.98.27-.78.15-1.86.48-2.42.71-.55.23-1.43.7-1.96 1.06-.53.35-1.37 1.08-1.9 1.64-.58.61-1.17 1.42-1.52 2.08-.31.59-.7 1.56-.85 2.16-.25.91-.32 1.68-.41 4.88-.07 2.09-.22 4.56-.33 5.49-.12.94-.36 2.32-.55 3.09-.19.76-.54 1.91-.8 2.58-.25.65-.56 1.4-.69 1.65-.15.31-.21.63-.15.92.04.24.24.63.46.87.2.23.58.56.84.72.26.16.75.41 1.08.53.34.14.7.22.8.2.11-.02-.2-.24-.67-.48-.48-.24-1.1-.68-1.37-.98-.29-.31-.52-.69-.52-.86 0-.17.26-.89.6-1.6.32-.7.78-1.84 1.01-2.5.25-.67.59-1.96.76-2.85.18-.9.4-2.33.48-3.19.08-.85.19-2.92.26-4.61.1-2.71.16-3.17.47-4.13.19-.6.57-1.45.84-1.9.27-.45.68-1.04.92-1.31.23-.28.83-.82 1.32-1.22.5-.4 1.35-.94 1.9-1.21.55-.27 1.39-.62 1.88-.77.49-.15 1.25-.36 1.7-.45.44-.1 1.64-.18 2.64-.16 1.49 0 2.07.06 3.16.35.73.19 1.71.53 2.17.77.46.25 1.2.69 1.65 1.02.45.31 1.07.85 1.4 1.2.31.34.81 1.01 1.11 1.48.3.46.69 1.3.88 1.86.18.56.35 1.19.41 1.42.04.23.09 1.94.13 3.8.03 2.07.14 4.03.27 5.02.13.89.37 2.21.55 2.91.17.71.48 1.75.69 2.31.2.55.59 1.53.89 2.16.29.64.52 1.32.52 1.54 0 .24-.19.55-.57.95-.33.32-.98.77-1.47 1.01-.56.27-.77.44-.56.44.16 0 .58-.11.94-.25.36-.13.87-.42 1.17-.63.29-.24.64-.6.77-.82.14-.21.26-.62.26-.88s-.27-1.21-.6-2.1c-.32-.9-.76-2.24-.95-2.98-.17-.75-.42-2-.54-2.78-.11-.79-.23-1.89-.27-2.44-.05-.56-.15-2.21-.22-3.66-.09-1.82-.21-2.99-.4-3.73-.15-.6-.52-1.57-.82-2.17-.29-.6-.89-1.52-1.32-2.04-.44-.51-1.21-1.27-1.74-1.66-.51-.4-1.48-.99-2.16-1.32-.66-.32-1.69-.73-2.27-.89-.59-.15-1.35-.34-1.7-.4-.35-.05-1.35-.1-2.22-.12zm-1.93 2.73c-.21.04-.31.27-.57 1.53-.17.83-.51 2.1-.74 2.85-.23.74-.65 1.79-.92 2.3-.27.52-.8 1.34-1.17 1.83-.38.49-1.12 1.37-1.67 1.97-.54.59-1.3 1.54-1.66 2.1-.4.58-.85 1.48-1.05 2.1-.32 1-.35 1.26-.35 3.32 0 1.26.07 2.39.15 2.58.12.28.15.13.23-.95.05-.71.16-1.72.26-2.27.09-.52.2-.94.27-.9.05.02.05-.09.01-.25-.04-.17.07-.66.24-1.12.18-.45.56-1.16.83-1.56.27-.41 1.11-1.43 1.89-2.24.77-.83 1.61-1.8 1.89-2.17.28-.38.74-1.16 1.03-1.76.3-.6.68-1.55.85-2.1.17-.56.33-1.06.39-1.13.04-.05.32.38.61.95.36.72.87 1.41 1.56 2.13.58.6 2.07 1.84 3.4 2.83 1.3.98 2.77 2.12 3.24 2.53.48.42 1.13 1.09 1.44 1.5.31.41.76 1.13 1 1.6.41.81.41.85.19 1.22-.12.2-.6.85-1.06 1.45-.46.6-1.3 1.53-1.84 2.06-.56.54-1.34 1.24-1.75 1.55-.41.31-1.1.73-1.52.95-.43.21-1.14.48-1.56.59-.43.11-1.08.21-1.46.21-.37 0-1.07-.1-1.56-.22-.49-.11-1.27-.42-1.76-.69a12.5 12.5 0 0 1-1.75-1.18c-.48-.38-1.26-1.15-1.74-1.71s-1.14-1.42-1.47-1.93c-.33-.51-.63-.92-.67-.92-.04 0 .03.23.15.52.11.27.54 1 .95 1.63.41.61 1.21 1.59 1.79 2.2.57.61 1.46 1.39 1.99 1.74.53.35 1.3.77 1.74.94.42.16 1.22.36 1.76.44.77.11 1.22.1 2.2-.06.8-.14 1.54-.38 2.17-.7.52-.25 1.31-.77 1.76-1.12.45-.37 1.2-1.15 1.69-1.75.49-.6 1.2-1.68 1.56-2.4.38-.71.72-1.3.79-1.3.05 0 .15.23.23.5.07.28.22 1.22.31 2.07.18 1.43.2 1.52.31 1.02.06-.3.11-1.1.1-1.76 0-.67-.11-1.64-.23-2.17-.13-.53-.46-1.44-.75-2.03-.35-.74-.83-1.41-1.45-2.09-.51-.54-1.27-1.25-1.68-1.56-.41-.3-1.72-1.14-2.92-1.84-1.58-.95-2.45-1.56-3.22-2.31-.73-.7-1.2-1.27-1.47-1.83-.21-.45-.46-1.15-.54-1.56-.09-.47-.12-1.25-.05-2.13.05-.76.04-1.42-.02-1.46-.06-.04-.23-.07-.38-.04zm15.58 11.97-.03.38c-.02.2.1.62.25.95.16.31.42.74.58.97.2.27.52.46.94.59.35.08 1 .16 1.45.16.74 0 .82-.03.95-.34.08-.19.13-.57.13-.84 0-.28.06-.73.14-.99.07-.26.09-.5.05-.54-.05-.04-.49-.14-.99-.23-.49-.08-1.48-.14-3.47-.11zm3.63 1.76c-.18.26-.43.38-1.05.48-.45.08-.98.17-1.18.2-.38.07-.38.05-.38-.64v-.72c1.84-.15 2.51-.23 2.67-.28.27-.08.3-.06.24.26-.04.2-.17.51-.3.7zm.07 2.51c-.17 0-.7.07-1.19.13-.49.09-.99.18-1.11.21-.14.04-.22.11-.19.17.03.06.51.18 2.11.44l.22.78c.12.42.39 1.24.62 1.79.22.56.74 1.73 1.13 2.58.41.85.77 1.71.81 1.9.08.28 0 .41-.57.83-.35.27-1.05.93-1.56 1.46-.51.53-1.08 1.19-1.27 1.48-.19.27-.33.58-.3.68.03.12.34-.03.92-.47.49-.35 1.16-.89 1.48-1.19.33-.31.88-.96 1.91-2.38l-.26-.57c-.13-.33-.39-1.22-.55-2.01-.16-.79-.49-2.02-.69-2.74-.22-.73-.57-1.72-.8-2.21-.31-.72-.45-.88-.71-.88z" style="fill:#854fdd;fill-opacity:.25098"/></g><path style="fill:none" d="M0 0h72.2v72.2H0z"/></svg>