<?xml version="1.0" standalone="no"?>
<!DOCTYPE svg PUBLIC "-//W3C//DTD SVG 20010904//EN"
 "http://www.w3.org/TR/2001/REC-SVG-20010904/DTD/svg10.dtd">
<svg version="1.0" xmlns="http://www.w3.org/2000/svg"
 width="900.000000pt" height="520.000000pt" viewBox="0 0 900.000000 520.000000"
 preserveAspectRatio="xMidYMid meet">

<g transform="translate(0.000000,520.000000) scale(0.100000,-0.100000)"
fill="#000000" stroke="none">
<path d="M6550 4736 c-190 -73 -651 -251 -1025 -396 -702 -270 -1438 -555
-2650 -1022 -385 -149 -736 -284 -780 -301 -122 -47 -166 -100 -150 -184 12
-65 52 -91 266 -170 480 -177 956 -356 978 -366 18 -9 30 -32 51 -102 193
-628 435 -1393 447 -1412 29 -44 113 -68 168 -47 9 4 171 133 359 286 187 154
354 286 371 295 41 22 125 20 169 -3 20 -10 262 -183 538 -384 711 -517 703
-511 746 -517 46 -5 99 21 127 63 14 20 40 127 83 335 35 167 83 399 107 514
24 116 81 386 125 600 107 516 490 2358 541 2604 43 206 44 239 7 286 -23 30
-74 55 -110 55 -13 -1 -178 -61 -368 -134z m-602 -798 c7 -7 12 -19 12 -28 0
-9 -368 -358 -817 -775 -1171 -1088 -1144 -1062 -1181 -1137 -32 -65 -38 -102
-87 -473 -10 -71 -24 -140 -32 -152 -14 -24 -55 -31 -82 -14 -20 13 -274 905
-274 966 -1 67 17 116 57 156 18 19 295 196 617 394 321 198 845 521 1164 717
319 197 587 358 596 358 8 0 20 -5 27 -12z"/>
</g>
</svg>
