<?xml version="1.0" standalone="no"?>
<!DOCTYPE svg PUBLIC "-//W3C//DTD SVG 20010904//EN"
 "http://www.w3.org/TR/2001/REC-SVG-20010904/DTD/svg10.dtd">
<svg version="1.0" xmlns="http://www.w3.org/2000/svg"
 width="2029.000000pt" height="1151.000000pt" viewBox="0 0 2029.000000 1151.000000"
 preserveAspectRatio="xMidYMid meet">

<g transform="translate(0.000000,1151.000000) scale(0.100000,-0.100000)"
fill="#000000" stroke="none">
<path d="M8064 11498 c-446 -28 -910 -238 -1236 -561 -84 -83 -208 -226 -208
-240 0 -3 55 -5 123 -6 490 -2 860 -279 1020 -766 37 -111 64 -230 82 -365 12
-89 18 -268 25 -780 5 -366 16 -1028 25 -1473 16 -848 15 -877 -26 -1000 -62
-183 -192 -333 -364 -418 -118 -58 -189 -74 -330 -74 -136 0 -220 21 -335 81
-126 66 -177 118 -329 333 -899 1275 -1671 2677 -2279 4138 -123 295 -129 306
-193 383 -96 116 -243 204 -391 234 -69 14 -251 16 -1635 16 -1705 0 -1611 3
-1732 -58 -115 -58 -213 -176 -253 -305 -17 -57 -20 -86 -16 -170 5 -90 11
-116 51 -222 343 -910 874 -2042 1464 -3123 993 -1819 2073 -3371 3173 -4557
200 -216 632 -642 818 -808 1066 -950 2087 -1509 3092 -1691 339 -62 320 -61
1570 -61 l1145 0 75 23 c251 79 427 254 511 507 23 70 23 73 29 770 6 759 5
735 64 868 85 194 269 349 482 408 60 17 105 22 184 21 192 -1 349 -62 497
-195 44 -39 581 -542 1192 -1117 611 -574 1139 -1064 1173 -1088 90 -64 251
-138 365 -170 l98 -27 1670 0 c1335 0 1690 3 1768 13 530 72 827 315 845 690
12 263 -85 519 -311 817 -34 44 -185 206 -337 360 -651 663 -2398 2491 -2467
2583 -62 81 -147 261 -175 367 -19 75 -23 115 -22 245 0 136 3 167 26 252 31
111 69 200 123 283 20 32 277 374 569 759 886 1166 1650 2179 1747 2313 441
614 727 1177 794 1562 19 108 19 258 0 340 -54 227 -241 362 -555 401 -55 6
-682 10 -1813 10 -1895 0 -1799 3 -1948 -59 -121 -51 -247 -151 -317 -253 -49
-71 -1183 -2172 -1595 -2953 -354 -672 -469 -872 -638 -1110 -124 -174 -205
-272 -324 -390 -352 -351 -660 -398 -878 -135 -51 60 -131 226 -158 324 -55
205 -52 83 -58 2191 l-6 1950 -27 97 c-112 408 -399 695 -806 806 l-97 26
-625 3 c-1552 7 -2213 7 -2316 1z"/>
</g>
</svg>
