<svg width="163" height="50" fill="none" xmlns="http://www.w3.org/2000/svg"><rect y="11.5" width="27" height="27" rx="13.5" fill="#000"/><path d="M15.403 33.114h2.82v-16.2h-4.102c-4.126 0-6.294 2.12-6.294 5.244 0 2.494 1.189 3.963 3.31 5.478l-3.683 5.478h3.054l4.102-6.13-1.422-.957c-1.725-1.165-2.564-2.074-2.564-4.032 0-1.725 1.212-2.89 3.52-2.89h1.259v14.009Z" fill="#fff"/><path d="M34.216 14.955V35h3.49V17.666h6.23V35h3.49V14.955h-13.21Zm19.255 5.538h-3.173v18.689h3.432v-5.884c.866 1.298 2.135 1.99 3.605 1.99 3.346 0 5.653-2.682 5.653-7.556 0-4.845-2.25-7.527-5.48-7.527-1.615 0-2.941.75-3.864 2.163l-.173-1.875Zm3 12.084c-1.818 0-2.74-1.47-2.74-4.816 0-3.374.98-4.845 2.912-4.845 1.875 0 2.798 1.47 2.798 4.816 0 3.375-.98 4.845-2.97 4.845Zm19.515-7.47c0-3.518-1.789-4.845-5.423-4.845-2.278 0-4.066.721-5.105 1.327v2.855c.923-.692 2.942-1.442 4.702-1.442 1.644 0 2.393.577 2.393 2.134v.808h-.548c-5.249 0-7.585 1.73-7.585 4.672 0 2.942 1.788 4.586 4.442 4.586 2.019 0 2.884-.663 3.547-1.356h.144c.03.375.145.866.26 1.154h3.346a36.534 36.534 0 0 1-.174-3.547v-6.345Zm-3.433 6.432c-.432.635-1.24 1.154-2.451 1.154-1.442 0-2.163-.865-2.163-2.163 0-1.702 1.182-2.308 4.124-2.308h.49v3.317ZM87.253 35h3.894l-5.509-7.816 4.845-6.691h-3.46l-4.846 6.691v-6.691h-3.432V35h3.432v-7.124L87.253 35Zm15.259-11.796v-2.711H91.005v2.711h4.038V35h3.432V23.204h4.037Zm2.032-2.711V35h2.971l5.307-8.97V35h3.345V20.493h-2.97l-5.307 8.97v-8.97h-3.346ZM127.557 35h3.894l-5.509-7.816 4.846-6.691h-3.461l-4.846 6.691v-6.691h-3.432V35h3.432v-7.124L127.557 35Zm6.914 4.47c3.201 0 4.384-2.278 5.364-5.249l4.528-13.728h-3.316l-3.202 10.902-3.201-10.902h-3.605l4.989 15.142c-.375.692-.923 1.124-1.874 1.124-.635 0-1.183-.202-1.558-.577v2.798s.519.49 1.875.49ZM158.038 35h3.346l-.058-14.507h-4.701l-3.144 9.662-2.826-9.662h-4.99V35h2.913V24.156L151.722 35h2.798l3.518-10.844V35Z" fill="#000"/></svg>