<svg xmlns="http://www.w3.org/2000/svg" width="2129.28" height="2132.156"><path data-name="Заливка цветом 1" d="M1037 1c521.5-8.007 869.39 301.749 1018 668 97.14 239.393 99.56 546.37 4 790-121.97 310.97-365.96 537.08-701 635-75.7 22.13-155.15 26.71-245 39q-57-1.005-114-2c-137.656-18.92-236.98-34.22-343-79-336.976-142.35-569.827-410.65-643-817-16.842-93.53-19.994-225.82-3-323 12.833-73.387 27.134-142.977 51-206C179.518 393.035 396.121 179.772 709 61c67.131-25.484 141.744-39.115 221-52Zm204 1229v480h136V423h-180l-101 3c-117.628 22.769-191.674 101.329-243 191-112.642 196.8-39.593 437.45 97 547 22.454 18.01 47.956 42.83 78 52l-272 494h172q108.5-239.97 217-480h96Zm-4-698v584c-106.84.91-179.26-3.81-225-62-104.6-133.064-79.132-425.9 55-504 38.9-22.653 107.2-18.435 170-18Z" transform="translate(0 -.844)" style="fill:#de0000;fill-rule:evenodd"/></svg>